<svg xmlns="http://www.w3.org/2000/svg" version="1.1" xmlns:xlink="http://www.w3.org/1999/xlink" width="19.46" height="24"><svg xmlns="http://www.w3.org/2000/svg" class="img-fluid" id="SvgjsSvg1104" viewBox="5 4.07 19.46 24">    <g id="SvgjsG1103" fill="#00d5be">        <g>            <path id="SvgjsPath1102" d="M15.664 28.049c-0.871 -0.099 -1.759 -0.417 -2.405 -0.868 -0.598 -0.413 -1.09 -1.069 -1.349 -1.794 -0.178 -0.495 -0.232 -0.827 -0.232 -1.421 0 -1.151 0.335 -2.187 1.045 -3.246 0.683 -1.015 1.715 -1.835 3.659 -2.921 1.107 -0.618 1.971 -1.168 2.562 -1.636 0.352 -0.28 1.117 -1.039 1.384 -1.37 0.724 -0.909 1.298 -2.115 1.52 -3.194 0.031 -0.15 0.068 -0.335 0.085 -0.41s0.048 -0.249 0.068 -0.383c0.024 -0.137 0.051 -0.256 0.068 -0.266 0.041 -0.027 0.116 0.079 0.359 0.512 0.489 0.861 1.001 2.002 1.329 2.962 0.328 0.95 0.482 1.715 0.67 3.293 0.044 0.355 0.044 1.647 0 1.889 -0.017 0.106 -0.058 0.383 -0.085 0.618 -0.072 0.553 -0.191 1.09 -0.383 1.698 -0.547 1.759 -1.442 3.194 -2.754 4.414 -0.793 0.735 -1.541 1.22 -2.528 1.643 -0.509 0.215 -0.803 0.297 -1.544 0.427 -0.362 0.061 -1.127 0.089 -1.469 0.051"></path>            <path id="SvgjsPath1101" d="M10.622 27.287c-0.297 -0.123 -0.967 -0.489 -1.326 -0.721 -1.042 -0.68 -2.101 -1.736 -2.781 -2.774 -0.256 -0.389 -0.591 -1.001 -0.745 -1.36 -0.266 -0.612 -0.588 -1.725 -0.683 -2.378 -0.106 -0.694 -0.123 -2.477 -0.034 -3.075 0.024 -0.14 0.058 -0.362 0.075 -0.495 0.116 -0.752 0.407 -1.821 0.704 -2.562 0.977 -2.456 2.511 -4.472 4.981 -6.549 0.618 -0.519 2.111 -1.613 2.938 -2.156 1.104 -0.724 2.115 -1.151 2.716 -1.151 0.526 0 2.036 1.199 2.651 2.101 0.434 0.635 0.813 1.524 1.001 2.327 0.154 0.676 0.184 0.981 0.164 1.636 -0.058 1.838 -0.782 3.307 -2.221 4.513 -0.314 0.266 -1.278 0.919 -1.66 1.131 -1.565 0.861 -2.624 1.52 -3.283 2.05 -0.413 0.331 -1.127 1.032 -1.414 1.394 -1.237 1.548 -1.818 3.229 -1.749 5.07 0.01 0.256 0.044 0.608 0.072 0.786 0.099 0.598 0.413 1.428 0.758 1.995 0.106 0.178 0.13 0.297 0.055 0.297 -0.014 0 -0.113 -0.038 -0.219 -0.079"></path>        </g>    </g></svg><style>@media (prefers-color-scheme: light) { :root { filter: contrast(1) brightness(0.9); } }
@media (prefers-color-scheme: dark) { :root { filter: none; } }
</style></svg>